<?xml version="1.0" encoding="UTF-8"?> <svg xmlns="http://www.w3.org/2000/svg" width="100" height="17" viewBox="0 0 100 17" fill="none"> <path d="M5.51484 4.99316C3.96224 4.99316 2.23575 5.42789 0.782511 6.38429L1.99975 8.2971C2.94373 7.68848 4.18581 7.39038 5.24158 7.39038C6.52093 7.39038 7.40281 8.18531 7.40281 9.20382V9.60128C6.13588 9.26592 5.24158 9.14171 4.09887 9.22866C1.81344 9.40255 0 10.7192 0 13.1164C0 15.1161 1.75133 16.8054 3.92498 16.8054C5.24158 16.8054 6.63271 16.1843 7.40281 15.1658V16.5445H10.2348V9.51434C10.2348 6.68239 8.471 4.99316 5.51484 4.99316ZM7.40281 12.8431C7.40281 12.8431 6.39672 14.346 4.38455 14.346C3.24183 14.346 2.53385 13.6877 2.53385 12.8555C2.53385 11.5265 4.43423 10.7564 7.40281 11.601C7.40281 12.3463 7.40281 12.8431 7.40281 12.8431Z" fill="black"></path> <path d="M37.9704 7.76295V5.27879H34.3187V2.17358H31.2508V5.27879H28.8163V7.76295H31.2508V12.6071C31.2508 15.1037 32.5053 16.7805 35.6974 16.7805C37.3121 16.7805 38.5169 16.0352 38.5169 16.0352L37.0389 13.7498C36.2936 14.0355 35.6477 14.0603 35.4117 14.023C34.7907 13.9237 34.3187 13.5014 34.3187 12.4208V7.76295H37.9704Z" fill="black"></path> <path d="M65.2342 7.76295V5.27879H61.5824V2.17358H58.5145V5.27879H56.08V7.76295H58.5145V12.6071C58.5145 15.1037 59.769 16.7805 62.9612 16.7805C64.5759 16.7805 65.7807 16.0352 65.7807 16.0352L64.3026 13.7498C63.5573 14.0355 62.9115 14.0603 62.6755 14.023C62.0544 13.9237 61.5824 13.5014 61.5824 12.4208V7.76295H65.2342Z" fill="black"></path> <path d="M27.5866 1.98733C27.5866 3.08036 26.6923 3.97466 25.5993 3.97466C24.5062 3.97466 23.6119 3.09278 23.6119 1.98733C23.6119 0.894299 24.4938 0 25.5993 0C26.7047 0 27.5866 0.894299 27.5866 1.98733Z" fill="black"></path> <path d="M27.1519 5.29126H24.0715V16.5569H27.1519V5.29126Z" fill="black"></path> <path d="M19.6746 5.29126L16.6563 13.489L13.6505 5.29126H10.5701L14.7187 16.5569H15.5385H17.7866H18.6064L22.7425 5.29126H19.6746Z" fill="black"></path> <path d="M44.4914 4.99316C41.1626 4.99316 38.4548 7.6388 38.4548 10.8931C38.4548 14.1473 41.1626 16.7929 44.4914 16.7929C47.8201 16.7929 50.5279 14.1473 50.5279 10.8931C50.5279 7.6388 47.8201 4.99316 44.4914 4.99316ZM44.4914 13.9734C42.7773 13.9734 41.3861 12.6195 41.3861 10.9427C41.3861 9.26592 42.7773 7.91206 44.4914 7.91206C46.2054 7.91206 47.5966 9.26592 47.5966 10.9427C47.5841 12.6195 46.2054 13.9734 44.4914 13.9734Z" fill="black"></path> <path d="M55.9557 14.8181C55.9557 15.9112 55.0614 16.8055 53.9684 16.8055C52.8754 16.8055 51.9811 15.9236 51.9811 14.8181C51.9811 13.7251 52.863 12.8308 53.9684 12.8308C55.0614 12.8432 55.9557 13.7251 55.9557 14.8181Z" fill="black"></path> <path d="M76.4253 11.4396C76.475 11.0669 76.5123 10.7067 76.5123 10.359C76.5123 7.15438 74.5001 4.99316 71.4943 4.99316C68.1034 4.99316 65.7434 7.41522 65.7434 10.8931C65.7434 14.3088 68.3021 16.7929 71.8172 16.7929C73.4816 16.7929 75.2081 16.1719 76.3384 15.1782L76.4129 15.1161L75.0342 12.9425C74.0902 13.7002 73.0469 14.1349 72.0283 14.1349C70.277 14.1349 69.0473 13.1661 68.8362 11.5265H76.4129L76.4253 11.4396ZM68.9107 9.41497C69.2088 8.11079 70.1652 7.39038 71.4321 7.39038C72.6245 7.39038 73.4567 8.14805 73.5188 9.41497H68.9107Z" fill="black"></path> <path d="M87.1445 12.7686C86.2874 13.6008 85.1199 14.1473 84.0517 14.1473C81.8656 14.1473 80.7229 12.545 80.7229 10.8806C80.7229 8.96782 82.0892 7.65122 83.9647 7.65122C84.9708 7.65122 85.9521 8.09837 86.6601 8.80635L88.2002 6.7445L88.1381 6.68239C87.1569 5.62662 85.5422 4.99316 83.8033 4.99316C80.2633 4.99316 77.6798 7.47733 77.6798 10.8931C77.6798 14.3088 80.2509 16.7929 83.8033 16.7929C85.5919 16.7929 87.368 16.085 88.4362 14.9547L88.4983 14.8926L87.1445 12.7686Z" fill="black"></path> <path d="M89.6783 0H92.7214V6.01167C93.4046 5.50242 94.3485 4.99317 95.6403 4.99317C98.584 4.99317 100 6.55819 100 10.0733V16.5569H96.9569V10.2223C96.9321 8.471 96.2986 7.8748 94.833 7.8748C94.0504 7.8748 93.2431 8.29711 92.7214 9.19141V16.5569H89.6783V0Z" fill="black"></path> </svg> 