<?xml version="1.0" encoding="UTF-8"?> <svg xmlns="http://www.w3.org/2000/svg" width="296" height="88" viewBox="0 0 296 88" fill="none"> <path fill-rule="evenodd" clip-rule="evenodd" d="M26.6519 22.5448C26.6519 22.5448 39.4498 27.4532 50.9256 20.0483L51 20L51.0746 20.0483C62.5502 27.4532 75.3481 22.5448 75.3481 22.5448L80 33.6257C76.9767 36.4631 75.0317 38.2952 75.3064 44.2351H26.6938C26.9685 38.2952 25.0233 36.4631 22 33.6257L26.6519 22.5448ZM42.7691 37.7807C43.2609 37.9945 43.8168 38.1014 44.4369 38.1014C45.057 38.1014 45.6094 37.9945 46.094 37.7807C46.5858 37.5597 47.0028 37.2674 47.3449 36.9039C47.687 36.5404 47.9472 36.1234 48.1254 35.653C48.3036 35.1754 48.3927 34.68 48.3927 34.1668C48.3927 33.6536 48.3036 33.1617 48.1254 32.6913C47.9472 32.2137 47.687 31.7932 47.3449 31.4296C47.0028 31.0661 46.5858 30.7774 46.094 30.5636C45.6094 30.3426 45.057 30.2321 44.4369 30.2321C43.8168 30.2321 43.2609 30.3426 42.7691 30.5636C42.2773 30.7774 41.8603 31.0661 41.5182 31.4296C41.1761 31.7932 40.9159 32.2137 40.7377 32.6913C40.5595 33.1617 40.4704 33.6536 40.4704 34.1668C40.4704 34.68 40.5595 35.1754 40.7377 35.653C40.9159 36.1234 41.1761 36.5404 41.5182 36.9039C41.8603 37.2674 42.2773 37.5597 42.7691 37.7807ZM45.3563 36.3479C45.0855 36.4762 44.779 36.5404 44.4369 36.5404C44.0948 36.5404 43.7883 36.4762 43.5174 36.3479C43.2466 36.2125 43.015 36.0343 42.8225 35.8133C42.6372 35.5924 42.4947 35.3393 42.3949 35.0542C42.2951 34.7691 42.2452 34.4733 42.2452 34.1668C42.2452 33.8603 42.2951 33.5645 42.3949 33.2793C42.4947 32.9942 42.6372 32.7412 42.8225 32.5202C43.015 32.2992 43.2466 32.1246 43.5174 31.9963C43.7883 31.8609 44.0948 31.7932 44.4369 31.7932C44.779 31.7932 45.0855 31.8609 45.3563 31.9963C45.6272 32.1246 45.8553 32.2992 46.0406 32.5202C46.233 32.7412 46.3791 32.9942 46.4789 33.2793C46.5787 33.5645 46.6286 33.8603 46.6286 34.1668C46.6286 34.4733 46.5787 34.7691 46.4789 35.0542C46.3791 35.3393 46.233 35.5924 46.0406 35.8133C45.8553 36.0343 45.6272 36.2125 45.3563 36.3479ZM36.4777 34.3165C36.328 34.3877 36.1641 34.4234 35.9859 34.4234H34.7992V31.8359H35.9859C36.1641 31.8359 36.328 31.8716 36.4777 31.9428C36.6274 32.0141 36.7521 32.1104 36.8519 32.2315C36.9588 32.3456 37.0408 32.481 37.0978 32.6378C37.1548 32.7946 37.1833 32.9586 37.1833 33.1297C37.1833 33.3007 37.1548 33.4647 37.0978 33.6215C37.0408 33.7783 36.9588 33.9173 36.8519 34.0385C36.7521 34.1525 36.6274 34.2452 36.4777 34.3165ZM36.2104 30.4246H33.0672V37.909H34.7992V35.8347H35.6117L36.9374 37.909H38.9474L37.4506 35.546C37.921 35.3251 38.2845 35.0007 38.5411 34.5731C38.8048 34.1383 38.9367 33.6571 38.9367 33.1297C38.9367 32.7661 38.8725 32.4204 38.7442 32.0925C38.6159 31.7647 38.4306 31.4795 38.1883 31.2372C37.9531 30.9877 37.668 30.7917 37.333 30.6491C36.998 30.4994 36.6238 30.4246 36.2104 30.4246ZM50.1854 30.4246H51.9174V35.3429C51.9174 35.514 51.9459 35.6779 52.003 35.8347C52.06 35.9844 52.1384 36.1163 52.2382 36.2303C52.3451 36.3444 52.4698 36.437 52.6124 36.5083C52.7549 36.5725 52.9153 36.6045 53.0935 36.6045C53.2717 36.6045 53.432 36.5725 53.5746 36.5083C53.7242 36.437 53.849 36.3444 53.9488 36.2303C54.0557 36.1163 54.1376 35.9844 54.1947 35.8347C54.2517 35.6779 54.2802 35.514 54.2802 35.3429V30.4246H56.0122V35.3536C56.0122 35.7385 55.9445 36.0985 55.809 36.4335C55.6736 36.7685 55.4776 37.0607 55.221 37.3102C54.9716 37.5526 54.6651 37.745 54.3016 37.8876C53.9452 38.0301 53.5425 38.1014 53.0935 38.1014C52.6444 38.1014 52.2417 38.0301 51.8854 37.8876C51.529 37.745 51.2225 37.5526 50.9659 37.3102C50.7164 37.0607 50.524 36.7685 50.3886 36.4335C50.2532 36.0985 50.1854 35.7385 50.1854 35.3536V30.4246ZM57.629 31.9215H59.3182V37.909H61.0502V31.9215H62.7501V30.4246H57.629V31.9215ZM66.2118 31.8145V33.5146H69.045V34.8724H66.2118V36.519H69.045V37.909H64.4798V30.4246H69.045V31.8145H66.2118ZM28.0142 66.599C28.0142 65.0844 28.13 63.8102 28.3617 62.7767C28.6111 61.7431 28.9586 60.8699 29.4041 60.1571C29.8495 59.4444 30.3663 58.8385 30.9543 58.3395C31.5601 57.8406 32.2283 57.3683 32.9589 56.9228C33.5113 56.6021 34.0191 56.2991 34.4824 56.014C34.9635 55.7111 35.3823 55.4081 35.7386 55.1052C36.095 54.8023 36.3712 54.4726 36.5672 54.1162C36.781 53.742 36.8879 53.3232 36.8879 52.8599C36.8879 52.1115 36.683 51.5769 36.2732 51.2561C35.8634 50.9175 35.3555 50.7482 34.7497 50.7482C34.0726 50.7482 33.5024 50.9621 33.0391 51.3897C32.5936 51.7996 32.3709 52.4946 32.3709 53.4747H28.0677C28.0677 52.6193 28.2102 51.8263 28.4953 51.0957C28.7982 50.3651 29.2348 49.7325 29.805 49.1979C30.3752 48.6633 31.0701 48.2445 31.8898 47.9416C32.7094 47.6386 33.6538 47.4872 34.723 47.4872C35.5783 47.4872 36.389 47.603 37.1552 47.8347C37.9392 48.0485 38.6253 48.3871 39.2133 48.8504C39.8013 49.2959 40.2646 49.884 40.6031 50.6146C40.9595 51.3274 41.1377 52.1738 41.1377 53.1539C41.1377 53.938 40.9684 54.6508 40.6299 55.2923C40.2913 55.9338 39.8726 56.5041 39.3737 57.003C38.8926 57.502 38.3669 57.9475 37.7967 58.3395C37.2265 58.7137 36.7098 59.0345 36.2465 59.3018C35.605 59.7295 35.0704 60.1037 34.6428 60.4244C34.2329 60.7274 33.9033 61.0125 33.6538 61.2798C33.4044 61.5471 33.2262 61.8233 33.1193 62.1084C33.0302 62.3935 32.9856 62.7232 32.9856 63.0974H41.0041V66.599H28.0142ZM43.9513 47.8881H56.5937V51.2561H47.9338V55.426C48.1119 55.1408 48.3436 54.8914 48.6287 54.6775C48.9138 54.4637 49.2256 54.2855 49.5642 54.1429C49.9205 54.0004 50.2769 53.8934 50.6333 53.8222C51.0075 53.7509 51.3728 53.7152 51.7291 53.7152C52.7626 53.7152 53.6625 53.9024 54.4287 54.2766C55.1949 54.633 55.8275 55.1141 56.3264 55.72C56.8431 56.3259 57.2262 57.0208 57.4757 57.8049C57.7251 58.5712 57.8499 59.3642 57.8499 60.1839C57.8499 61.1105 57.6806 61.9926 57.342 62.8301C57.0213 63.6499 56.5491 64.3716 55.9255 64.9953C55.3196 65.6011 54.5712 66.0912 53.6803 66.4654C52.7894 66.8218 51.7826 67 50.66 67C49.5553 67 48.5574 66.8218 47.6665 66.4654C46.7934 66.0912 46.045 65.6011 45.4213 64.9953C44.8155 64.3716 44.3433 63.6499 44.0047 62.8301C43.684 62.0104 43.5236 61.1462 43.5236 60.2373H47.7199C47.7199 61.1105 47.9783 61.859 48.495 62.4826C49.0296 63.1063 49.7513 63.4182 50.66 63.4182C51.1233 63.4182 51.5331 63.338 51.8895 63.1776C52.2637 62.9994 52.5755 62.7678 52.825 62.4826C53.0923 62.1797 53.2972 61.8322 53.4397 61.4402C53.5823 61.0481 53.6536 60.6294 53.6536 60.1839C53.6536 59.7562 53.5823 59.3553 53.4397 58.981C53.315 58.589 53.119 58.2504 52.8517 57.9653C52.6023 57.6624 52.2904 57.4307 51.9162 57.2703C51.5599 57.0921 51.15 57.003 50.6867 57.003C50.0453 57.003 49.5018 57.1456 49.0563 57.4307C48.6287 57.7158 48.2723 58.1435 47.9872 58.7137H43.9513V47.8881ZM64.0445 66.4387C64.9355 66.7951 65.9333 66.9733 67.0381 66.9733C68.1607 66.9733 69.1585 66.7951 70.0316 66.4387C70.9226 66.0645 71.671 65.5744 72.2768 64.9685C72.9005 64.3448 73.3727 63.6231 73.6934 62.8034C74.0319 61.9837 74.2012 61.1105 74.2012 60.1839C74.2012 59.382 74.0765 58.6246 73.827 57.9118C73.5776 57.1812 73.2123 56.5308 72.7312 55.9606C72.2501 55.3725 71.671 54.8914 70.9938 54.5171C70.3167 54.1429 69.5505 53.9024 68.6952 53.7954C68.321 53.6529 67.9468 53.5549 67.5726 53.5014L71.3146 47.8881H66.4501L61.051 56.308C60.6946 56.8783 60.4095 57.4931 60.1957 58.1524C59.9997 58.7939 59.9017 59.4711 59.9017 60.1839C59.9017 61.1105 60.062 61.9837 60.3828 62.8034C60.7213 63.6231 61.1935 64.3448 61.7994 64.9685C62.423 65.5744 63.1714 66.0645 64.0445 66.4387ZM68.2676 63.1242C67.8934 63.2845 67.4836 63.3647 67.0381 63.3647C66.1293 63.3647 65.4077 63.0529 64.8731 62.4292C64.3564 61.8055 64.098 61.0571 64.098 60.1839C64.098 59.2929 64.3564 58.5444 64.8731 57.9386C65.4077 57.3149 66.1293 57.003 67.0381 57.003C67.4836 57.003 67.8934 57.0921 68.2676 57.2703C68.6418 57.4307 68.9536 57.6535 69.2031 57.9386C69.4703 58.2237 69.6753 58.5623 69.8178 58.9543C69.9604 59.3285 70.0316 59.7384 70.0316 60.1839C70.0316 60.6116 69.9604 61.0214 69.8178 61.4135C69.6753 61.8055 69.4703 62.1441 69.2031 62.4292C68.9536 62.7143 68.6418 62.946 68.2676 63.1242Z" fill="white"></path> <path fill-rule="evenodd" clip-rule="evenodd" d="M115.177 39.6035C113.098 39.3867 111.003 39.8125 109.179 40.8219C107.355 41.831 105.891 43.3744 104.989 45.2396C104.088 47.1054 103.793 49.201 104.144 51.2391C104.496 53.2775 105.476 55.1576 106.953 56.6218C108.428 58.0865 110.326 59.0623 112.386 59.4166C114.445 59.7703 116.564 59.485 118.453 58.599C120.341 57.7128 121.906 56.2699 122.932 54.4685C123.958 52.6671 124.395 50.5957 124.183 48.5384C123.949 46.2522 122.925 44.1154 121.285 42.4882C119.645 40.8607 117.488 39.8418 115.177 39.6035ZM114.849 54.8526C113.731 55.001 112.595 54.7988 111.599 54.2751C110.602 53.7514 109.798 52.9323 109.297 51.9322C108.796 50.9324 108.624 49.8026 108.806 48.7012C108.987 47.6004 109.514 46.583 110.31 45.7931C111.106 45.0026 112.133 44.4792 113.246 44.296C114.358 44.1127 115.501 44.2789 116.514 44.7715C117.526 45.2636 118.357 46.0572 118.889 47.041C119.422 48.0246 119.629 49.1483 119.483 50.255C119.329 51.4186 118.792 52.4998 117.954 53.331C117.117 54.1618 116.025 54.697 114.849 54.8526ZM129.594 39.9992C129.243 40 128.897 40.0782 128.58 40.2282C128.264 40.3782 127.985 40.5961 127.764 40.866C127.543 41.1357 127.386 41.4512 127.304 41.7884C127.222 42.1259 127.217 42.4773 127.29 42.8166C127.512 43.9172 128.551 44.6686 129.682 44.6686H136.251L126.029 58.049C125.953 58.1477 125.907 58.2655 125.896 58.3889C125.883 58.512 125.907 58.6362 125.962 58.7474C126.018 58.8583 126.104 58.952 126.21 59.0174C126.316 59.0831 126.439 59.1179 126.564 59.1184H142.597C143.728 59.1184 144.768 58.3671 144.99 57.2665C145.063 56.9266 145.058 56.5755 144.976 56.2383C144.894 55.9005 144.736 55.5856 144.516 55.3156C144.296 55.0459 144.017 54.8281 143.7 54.6781C143.384 54.5278 143.038 54.4496 142.687 54.4486H134.684L144.898 41.0791C144.974 40.9791 145.021 40.8604 145.033 40.7357C145.045 40.6112 145.021 40.4857 144.965 40.374C144.909 40.2617 144.822 40.1673 144.715 40.1014C144.608 40.0351 144.484 39.9998 144.357 39.9992H129.594ZM193.663 40.0535C193.131 40.178 192.658 40.4785 192.322 40.9046C191.99 41.3307 191.813 41.857 191.82 42.3967V50.1712L179.084 40.1463C178.985 40.0679 178.865 40.0189 178.738 40.0051C178.611 39.9915 178.483 40.0131 178.368 40.0681C178.253 40.1232 178.156 40.2088 178.089 40.3157C178.021 40.4232 177.986 40.5466 177.986 40.6727V56.7253C177.977 57.2649 178.155 57.7915 178.49 58.2173C178.825 58.6434 179.297 58.944 179.828 59.0687C180.172 59.144 180.53 59.1413 180.872 59.0615C181.216 58.9817 181.537 58.8267 181.812 58.6075C182.088 58.3889 182.311 58.1118 182.462 57.7963C182.613 57.4814 182.692 57.1367 182.692 56.7878V48.9459L195.427 58.9708C195.529 59.0496 195.65 59.0982 195.774 59.1121C195.903 59.1262 196.031 59.1041 196.144 59.049C196.258 58.9942 196.356 58.9083 196.424 58.8014C196.492 58.6945 196.526 58.5711 196.526 58.4447V42.3336C196.526 41.9847 196.446 41.64 196.295 41.3248C196.144 41.0099 195.922 40.733 195.646 40.5141C195.37 40.2955 195.049 40.1402 194.705 40.0604C194.362 39.9809 194.007 39.9782 193.663 40.0535ZM160.502 44.222C165.889 44.222 169.913 47.0378 169.913 49.5566C169.913 52.0753 165.889 54.8911 160.502 54.8911C155.115 54.8911 151.09 52.0753 151.09 49.5566C151.09 47.0378 155.115 44.222 160.502 44.222ZM160.502 39.5527C152.705 39.5527 146.384 44.0316 146.384 49.5566C146.384 55.0813 152.705 59.5605 160.502 59.5605C168.299 59.5605 174.619 55.0813 174.619 49.5566C174.619 44.0316 168.299 39.5527 160.502 39.5527Z" fill="white"></path> <path fill-rule="evenodd" clip-rule="evenodd" d="M258.059 54.7252C258.102 54.5897 258.102 54.4499 258.102 54.3078V48.9434C258.102 47.0103 258.886 45.6245 260.062 44.8498C262.807 43.0444 267.382 44.4216 267.382 48.9251V58.4275C267.382 58.7953 267.687 59.0932 268.036 59.0932H271.346C271.695 59.0932 272 58.7953 272 58.4275V48.9251C272 40.3027 262.982 37.0004 258.059 41.5923V30.4134C258.059 30.2352 257.971 30.064 257.841 29.9386C257.71 29.8122 257.536 29.7412 257.362 29.7412H254.094C253.876 29.7412 253.745 29.8122 253.571 29.9386C253.484 30.064 253.396 30.2352 253.396 30.4134V58.4175C253.396 58.7887 253.702 59.0897 254.094 59.0897H257.362C257.754 59.0897 258.059 58.7887 258.059 58.4175V54.7252Z" fill="white"></path> <path fill-rule="evenodd" clip-rule="evenodd" d="M234.183 49.5444C234.183 46.9622 235.099 44.3861 237.103 42.4317C240.458 39.0635 245.642 38.6156 249.563 41.0929C249.694 41.1874 249.911 41.3085 250.042 41.4361C250.26 41.6492 250.347 41.9964 250.217 42.2748C249.737 42.961 248.823 44.1578 248.213 45.0013C247.951 45.2727 247.602 45.3415 247.297 45.1625C247.21 45.1084 247.123 45.0609 247.036 45.0322C242.723 42.2352 238.54 45.9105 238.54 49.5444C238.54 53.1784 242.635 56.8685 247.036 54.0571C247.123 54.0284 247.21 53.9805 247.297 53.9269C247.602 53.7478 247.951 53.8171 248.213 54.0885C248.823 54.9319 249.737 56.1283 250.217 56.8145C250.347 57.0933 250.26 57.4401 250.042 57.6532C249.911 57.7812 249.694 57.9019 249.563 57.9969C245.642 60.4737 240.458 60.0254 237.103 56.6581C235.099 54.7028 234.183 52.1271 234.183 49.5444Z" fill="white"></path> <path fill-rule="evenodd" clip-rule="evenodd" d="M218.238 51.2129H229.13C230.437 51.2129 231.483 50.1691 231.483 48.8825C231.483 46.0184 231.003 44.491 229.348 42.5418C227.649 40.5821 224.947 39.5195 222.856 39.5195C217.628 39.5195 213.62 43.9442 213.62 49.5452C213.62 56.4462 219.022 59.5704 223.335 59.5704C226.428 59.5704 228.824 58.832 231.177 57.3611C231.439 57.1677 231.569 56.7717 231.395 56.4593C230.916 55.6733 230.219 54.5271 229.697 53.749C229.522 53.4554 229.13 53.3691 228.825 53.5521C227.344 54.4251 225.775 55.1941 223.423 55.1771C221.244 55.1623 218.935 53.7851 218.238 51.2129ZM226.734 47.3882C226.342 44.4945 224.337 43.9655 222.856 43.9655C220.852 43.9655 219.153 45.4433 218.412 47.3882H226.734Z" fill="white"></path> <path fill-rule="evenodd" clip-rule="evenodd" d="M200.026 44.2599C200.026 44.2225 200.026 44.1833 200.026 44.144V40.6661C200.026 40.3359 200.245 40.0535 200.593 39.9956C201.072 39.9172 201.726 39.8061 201.9 39.7564C202.684 39.519 205.299 38.9591 205.299 35.2982V30.4147C205.299 30.0427 205.604 29.7412 205.952 29.7412H209.263C209.655 29.7412 209.917 30.0427 209.917 30.4147V35.2982C209.917 40.2901 206.344 42.2537 206.17 42.3931C206.344 42.529 209.786 44.3658 209.917 49.1569C209.917 49.2771 209.96 49.3991 209.96 49.5229V54.4063C209.96 54.4202 209.96 54.4337 209.917 54.4472C209.917 54.4472 209.917 57.6128 209.917 59.9141C209.917 61.2084 211.006 62.258 212.269 62.2584C213.141 62.2584 214.056 62.2584 214.709 62.2601C215.058 62.2741 215.363 62.5817 215.363 62.9568C215.363 63.8434 215.406 64.9382 215.406 66.2038C215.406 66.3899 215.319 66.5685 215.232 66.7001C215.057 66.8321 214.883 66.9061 214.709 66.9061H212.879L212.792 66.9066C210.831 66.9087 208.915 66.1302 207.52 64.7378C206.083 63.3267 205.299 61.4027 205.299 59.3952V49.4788C205.299 49.4244 205.299 49.3695 205.299 49.3142C205.212 45.8406 202.684 45.2973 201.9 45.0646C201.726 45.015 201.072 44.9039 200.593 44.825C200.288 44.774 200.07 44.5479 200.026 44.2687V44.2599Z" fill="white"></path> </svg> 